[img]http://img269.imageshack.us/img269/4166/ourf.jpg[/img]
[code]
Our Idiot Brother 2011 720p BRRiP XviD AC3 - MiSTERE
 
http://www.imdb.com/title/tt1637706/

Plot: A comedy centered on an idealist who barges into the lives of his three sisters.

Source: Our.Idiot.Brother.720p.BluRay.x264-REFiNED

Video
ID                               : 0
Format                           : MPEG-4 Visual
Format profile                   : Advanced Simple@L5
Format settings, BVOP            : 2
Format settings, QPel            : No
Format settings, GMC             : No warppoints
Format settings, Matrix          : Default (H.263)
Muxing mode                      : Packed bitstream
Codec ID                         : XVID
Codec ID/Hint                    : XviD
Duration                         : 1h 29mn
Bit rate                         : 3 740 Kbps
Width                            : 1 280 pixels
Height                           : 720 pixels
Display aspect ratio             : 16:9
Frame rate                       : 23.976 fps
Color space                      : YUV
Chroma subsampling               : 4:2:0
Bit depth                        : 8 bits
Scan type                        : Progressive
Compression mode                 : Lossy
Bits/(Pixel*Frame)               : 0.169
Stream size                      : 2.35 GiB (89%)
Writing library                  : XviD 64

Audio
ID                               : 1
Format                           : AC-3
Format/Info                      : Audio Coding 3
Mode extension                   : CM (complete main)
Codec ID                         : 2000
Duration                         : 1h 29mn
Bit rate mode                    : Constant
Bit rate                         : 448 Kbps
Channel(s)                       : 6 channels
Channel positions                : Front: L C R, Side: L R, LFE
Sampling rate                    : 48.0 KHz
Bit depth                        : 16 bits
Compression mode                 : Lossy
Stream size                      : 288 MiB (11%)
Alignment                        : Aligned on interleaves
Interleave, duration             : 42 ms (1.00 video frame)


Sharpened and tweaked RGB

[/code]
Screens:
[img]http://img696.imageshack.us/img696/6835/40372004.jpg[/img]
[img]http://img820.imageshack.us/img820/1807/79272804.png[/img]
[img]http://img155.imageshack.us/img155/9262/27634598.png[/img]
[img]http://img32.imageshack.us/img32/4858/30745766.png[/img]
[img]http://img708.imageshack.us/img708/4848/26452081.jpg[/img]